<svg width="241" height="235" viewBox="0 0 241 235" fill="none" xmlns="http://www.w3.org/2000/svg">
<g clip-path="url(#clip0_377_170)">
<path d="M43.1094 0.0683782H198.109C203.692 0.0631165 209.221 1.15882 214.38 3.29278C219.538 5.42674 224.226 8.55707 228.173 12.5046C232.121 16.4521 235.251 21.1394 237.385 26.2981C239.519 31.4568 240.615 36.9857 240.609 42.5684V191.568C240.615 197.151 239.519 202.68 237.385 207.839C235.251 212.997 232.121 217.685 228.173 221.632C224.226 225.58 219.538 228.71 214.38 230.844C209.221 232.978 203.692 234.074 198.109 234.068H43.1094C37.5267 234.074 31.9978 232.978 26.8391 230.844C21.6804 228.71 16.9932 225.58 13.0456 221.632C9.09808 217.685 5.96776 212.997 3.8338 207.839C1.69984 202.68 0.604132 197.151 0.609394 191.568V42.5684C0.604132 36.9857 1.69984 31.4568 3.8338 26.2981C5.96776 21.1394 9.09808 16.4521 13.0456 12.5046C16.9932 8.55707 21.6804 5.42674 26.8391 3.29278C31.9978 1.15882 37.5267 0.0631165 43.1094 0.0683782Z" fill="#00005B"/>
<path d="M97.0103 140.069H59.8103L52.2103 163.669C52.1254 164.097 51.8834 164.478 51.5319 164.737C51.1803 164.996 50.7446 165.114 50.3103 165.069H31.5103C30.4103 165.069 30.1103 164.469 30.4103 163.269L62.6103 70.9686C62.9103 69.9686 63.2103 69.0686 63.6103 67.8686C64.0128 65.7254 64.2137 63.5492 64.2103 61.3686C64.1804 61.1181 64.2462 60.8656 64.3945 60.6616C64.5429 60.4576 64.7628 60.3172 65.0103 60.2686H90.9103C91.6103 60.2686 92.1103 60.5686 92.2103 61.0686L128.71 163.569C129.01 164.669 128.71 165.169 127.71 165.169H106.81C106.457 165.203 106.103 165.111 105.81 164.91C105.517 164.709 105.305 164.411 105.21 164.069L97.0103 140.069ZM65.6103 120.169H91.0103C90.4103 118.069 89.6103 115.569 88.7103 112.969C87.8103 110.369 86.9103 107.369 86.0103 104.369C85.1103 101.369 84.1103 98.2686 83.1103 95.1686C82.1103 92.0686 81.2103 89.1686 80.4103 86.2686C79.6103 83.3686 78.9103 80.8686 78.2103 78.4686H78.0103C77.1116 82.827 75.9766 87.1334 74.6103 91.3686C73.1103 96.1686 71.6103 101.169 70.0103 106.169C68.7103 111.269 67.1103 115.969 65.6103 120.169ZM188.01 130.869H156.31C156.689 134.024 157.746 137.061 159.41 139.769C161.178 142.464 163.724 144.557 166.71 145.769C170.752 147.497 175.115 148.349 179.51 148.269C183.002 148.205 186.482 147.836 189.91 147.169C192.96 146.769 195.949 145.997 198.81 144.869C199.31 144.469 199.61 144.669 199.61 145.669V160.969C199.593 161.375 199.526 161.778 199.41 162.169C199.23 162.449 198.991 162.688 198.71 162.869C195.512 164.273 192.154 165.281 188.71 165.869C184.033 166.768 179.273 167.17 174.51 167.069C166.91 167.069 160.51 165.869 155.31 163.569C150.417 161.445 146.099 158.189 142.71 154.069C139.544 150.216 137.196 145.759 135.81 140.969C132.88 130.992 133.019 120.365 136.21 110.469C137.805 105.462 140.352 100.81 143.71 96.7686C147.017 92.7724 151.144 89.5328 155.81 87.2686C160.51 84.9686 166.11 84.1686 172.51 84.1686C177.843 84.0448 183.136 85.1035 188.01 87.2686C192.107 89.0446 195.711 91.7901 198.51 95.2686C201.168 98.684 203.2 102.544 204.51 106.669C205.782 110.61 206.423 114.727 206.41 118.869C206.41 121.269 206.31 123.369 206.21 125.269C206.11 127.169 205.91 128.569 205.81 129.469C205.766 129.815 205.602 130.135 205.346 130.372C205.09 130.61 204.759 130.75 204.41 130.769C203.81 130.769 202.71 130.869 201.11 130.969C199.185 131.187 197.248 131.287 195.31 131.269C193.01 131.269 190.61 130.869 188.01 130.869ZM156.31 116.269H177.41C180.01 116.269 181.91 116.269 183.11 116.169C183.932 116.1 184.723 115.825 185.41 115.369V114.369C185.414 113.111 185.212 111.861 184.81 110.669C183.935 107.932 182.193 105.555 179.848 103.895C177.503 102.236 174.682 101.384 171.81 101.469C169.096 101.316 166.396 101.953 164.036 103.302C161.676 104.65 159.757 106.653 158.51 109.069C157.344 111.314 156.598 113.754 156.31 116.269Z" fill="#9999FF"/>
</g>
<defs>
<clipPath id="clip0_377_170">
<rect width="240" height="234" fill="white" transform="translate(0.609375 0.0683594)"/>
</clipPath>
</defs>
</svg>
