<svg width="221" height="21" viewBox="0 0 221 21" fill="none" xmlns="http://www.w3.org/2000/svg">
<path fill-rule="evenodd" clip-rule="evenodd" d="M18.8177 20.5417V19.6823C16.9948 19.4896 16.6094 19.2969 15.651 16.8021C13.8281 11.8073 11.9063 6.33333 10.1771 1.34375L9.21875 1.53646L3.26563 16.7031C2.20833 19.2969 1.82813 19.4896 0 19.6823V20.5417H6.24479V19.6823C4.13021 19.4896 3.84375 19.1979 4.51563 17.375C4.89583 16.1302 5.28125 14.974 5.76042 13.7292H11.9063C12.5781 15.4583 13.1563 16.9896 13.5365 18.1458C13.8281 19.2969 13.6354 19.4896 11.8125 19.6823V20.5417H18.8177ZM11.5208 12.4792H6.24479C7.01042 10.0781 7.96875 7.58333 8.93229 5.08854L11.5208 12.4792Z" fill="#ED1B2D"/>
<path fill-rule="evenodd" clip-rule="evenodd" d="M32.7409 19.0104H31.7826C30.7253 18.8177 30.5326 18.7187 30.5326 17.1823V0C29.4753 0.385416 27.5534 0.765626 26.1159 1.05729V1.72917C28.1315 1.82292 28.2253 1.92188 28.2253 3.83854V7.86979C27.5534 7.68229 26.7878 7.58333 26.3086 7.58333C22.4701 7.58333 18.918 10.75 18.918 14.6875C18.918 18.7187 21.9857 20.8333 24.293 20.8333C24.5794 20.8333 25.444 20.7344 26.5013 20.0625L28.2253 19.0104V20.8333C29.9544 20.2552 32.1628 19.8698 32.7409 19.776V19.0104ZM28.2253 18.0469C27.5534 18.526 26.5013 19.0104 25.5378 19.0104C23.6211 19.0104 21.6055 17.375 21.6055 13.9219C21.6055 9.79167 24.0065 8.64063 25.2513 8.64063C26.4023 8.64063 27.5534 9.11979 28.2253 10.0781V18.0469Z" fill="#ED1B2D"/>
<path fill-rule="evenodd" clip-rule="evenodd" d="M39.1725 7.5835C36.5788 7.5835 32.834 9.69808 32.834 14.495C32.834 17.6616 35.235 20.8335 39.1725 20.8335C41.9538 20.8335 45.4121 18.6252 45.4121 14.0158C45.4121 10.4637 42.7246 7.5835 39.1725 7.5835ZM38.8809 8.54183C41.3809 8.54183 42.7246 11.3283 42.7246 14.6877C42.7246 18.5262 41.2819 19.9689 39.459 19.9689C37.1569 19.9689 35.5215 17.1825 35.5215 13.5366C35.5215 10.37 37.1569 8.54183 38.8809 8.54183Z" fill="#ED1B2D"/>
<path fill-rule="evenodd" clip-rule="evenodd" d="M49.7298 8.83333V0C48.5788 0.385416 46.8496 0.864584 45.5059 1.05729V1.63021C47.3288 1.82292 47.4277 2.01563 47.4277 3.83854V19.776C49.0579 20.6406 50.5007 20.8333 51.6517 20.8333C55.4902 20.8333 58.8496 17.8542 58.8496 13.6302C58.8496 10.1771 56.3548 7.58333 53.1882 7.58333C52.8965 7.58333 52.5163 7.68229 52.0371 7.86979L49.7298 8.83333ZM49.7298 9.69792C50.209 9.40625 51.1725 9.21354 51.9382 9.21354C54.3392 9.21354 56.3548 11.1354 56.3548 14.401C56.3548 17.7604 54.8184 19.776 52.4173 19.776C50.8809 19.776 50.0215 18.7187 49.8288 18.1458C49.7298 17.8542 49.7298 17.6615 49.7298 17.1823V9.69792Z" fill="#ED1B2D"/>
<path fill-rule="evenodd" clip-rule="evenodd" d="M69.985 17.4741C68.9329 18.4325 67.7819 18.9116 66.7246 18.9116C64.709 18.9116 62.4017 17.2814 62.4017 13.3439C65.7611 13.2502 69.4121 12.9585 69.8913 12.8647C70.4694 12.7658 70.5632 12.4793 70.5632 12.0002C70.5632 9.69808 68.6413 7.5835 66.2454 7.5835C64.709 7.5835 63.1725 8.35433 62.0215 9.69808C60.7715 10.9429 60.0996 12.7658 60.0996 14.6877C60.0996 17.9533 62.209 20.8335 65.7611 20.8335C66.6257 20.8335 68.5475 20.3543 70.4694 18.047L69.985 17.4741ZM65.5736 8.64079C67.11 8.64079 68.0684 10.0783 68.0684 11.521C68.0684 11.9064 67.8757 12.0939 67.3965 12.0939C65.7611 12.1929 64.1309 12.1929 62.5007 12.1929C62.8809 9.79183 64.2246 8.64079 65.4746 8.64079H65.5736Z" fill="#ED1B2D"/>
<path fill-rule="evenodd" clip-rule="evenodd" d="M71.6204 8.44792H71.7142C71.8132 8.44792 71.9069 8.44792 71.9069 8.54167C72.0059 8.73437 72.0059 8.83333 72.0059 8.83333H72.1934C72.1934 8.83333 72.1934 8.73437 72.1934 8.54167C72.1934 8.44792 72.0996 8.35417 72.0059 8.35417C72.0996 8.35417 72.1934 8.16146 72.1934 8.0625C72.1934 7.96875 72.1934 7.86979 72.0996 7.86979C72.0059 7.77604 72.0059 7.77604 71.7142 7.77604C71.5215 7.77604 71.4277 7.77604 71.3288 7.86979V8.83333H71.6204V8.44792ZM71.6204 7.96875H71.7142C71.9069 7.96875 72.0059 8.0625 72.0059 8.16146C72.0059 8.25521 71.8132 8.25521 71.7142 8.25521H71.6204V7.96875ZM71.8132 7.29688C71.1413 7.29688 70.7559 7.77604 70.7559 8.35417C70.7559 8.83333 71.1413 9.40625 71.8132 9.40625C72.3861 9.3125 72.7715 8.92708 72.7715 8.35417C72.7715 7.77604 72.3861 7.29688 71.8132 7.29688ZM71.8132 7.48958C72.1934 7.48958 72.5788 7.86979 72.5788 8.35417C72.5788 8.73437 72.1934 9.11979 71.8132 9.11979C71.3288 9.11979 70.9486 8.73437 70.9486 8.35417C70.9486 7.86979 71.3288 7.48958 71.7142 7.48958H71.8132Z" fill="#ED1B2D"/>
<path fill-rule="evenodd" clip-rule="evenodd" d="M88.61 17.375C87.8444 17.7604 86.5944 17.9531 85.4434 17.9531C81.7975 17.9531 79.4902 15.5521 79.4902 11.1354C79.4902 6.43229 82.084 4.13021 85.4434 4.13021C86.7871 4.13021 87.7454 4.41667 88.61 4.80208L89.2819 2.10938C88.61 1.72917 87.2663 1.34375 85.3496 1.34375C80.2611 1.34375 76.0371 4.80208 76.0371 11.3281C76.0371 17.0885 79.3965 20.7344 84.8652 20.7344C86.7871 20.7344 88.4173 20.4479 89.0892 20.0625L88.61 17.375Z" fill="#231F20"/>
<path fill-rule="evenodd" clip-rule="evenodd" d="M90.8184 20.5415H94.084V13.4373C94.084 12.9582 94.1777 12.578 94.2767 12.2863C94.5632 10.7498 95.6204 9.7915 97.0579 9.7915C97.4434 9.7915 97.7298 9.7915 98.0215 9.7915V6.62484C97.7298 6.62484 97.6361 6.52588 97.2507 6.52588C95.9069 6.52588 94.4694 7.48942 93.7975 9.31234H93.6986L93.6048 6.81755H90.7246C90.7246 8.06234 90.8184 9.40609 90.8184 11.1353V20.5415Z" fill="#231F20"/>
<path fill-rule="evenodd" clip-rule="evenodd" d="M110.308 14.5936C110.308 14.3019 110.402 13.8228 110.402 13.1509C110.402 9.98421 108.964 6.52588 104.933 6.52588C100.995 6.52588 98.7871 9.98421 98.7871 13.9217C98.7871 18.0467 101.089 20.7342 105.313 20.7342C107.042 20.7342 108.579 20.4478 109.636 19.9686L109.251 17.6613C108.292 18.0467 107.235 18.2394 105.798 18.2394C103.782 18.2394 102.053 17.1821 101.954 14.5936H110.308ZM101.954 12.2863C102.053 10.8488 102.917 8.92692 104.74 8.92692C106.657 8.92692 107.329 10.7498 107.235 12.2863H101.954Z" fill="#231F20"/>
<path fill-rule="evenodd" clip-rule="evenodd" d="M122.308 12.1925C122.308 9.21338 121.157 6.52588 117.027 6.52588C115.011 6.52588 113.381 7.19775 112.417 7.77588L113.089 9.98421C113.954 9.40609 115.204 9.02588 116.454 9.02588C118.563 9.02588 118.949 10.3696 118.949 11.4217V11.6144C114.532 11.6144 111.553 13.3436 111.553 16.703C111.553 18.9113 112.995 20.8332 115.589 20.8332C117.126 20.8332 118.469 20.0623 119.235 19.0103H119.329L119.521 20.5415H122.501C122.308 19.6821 122.308 18.4321 122.308 17.2811V12.1925ZM119.042 15.8384C119.042 16.13 119.042 16.4165 118.949 16.6092C118.657 17.6613 117.699 18.4321 116.548 18.4321C115.589 18.4321 114.725 17.7603 114.725 16.4165C114.725 14.3019 117.027 13.729 119.042 13.8228V15.8384Z" fill="#231F20"/>
<path fill-rule="evenodd" clip-rule="evenodd" d="M125.475 4.41667V6.81771H123.652V9.3125H125.475V15.9375C125.475 17.7604 125.861 19.0104 126.533 19.776C127.204 20.4479 128.163 20.7344 129.314 20.7344C130.371 20.7344 131.236 20.6406 131.715 20.4479L131.621 17.8542C131.236 18.0469 130.949 18.0469 130.371 18.0469C129.22 18.0469 128.741 17.375 128.741 15.6458V9.3125H131.814V6.81771H128.741V3.35938L125.475 4.41667Z" fill="#231F20"/>
<path fill-rule="evenodd" clip-rule="evenodd" d="M136.803 20.5417V6.81771H133.537V20.5417H136.803ZM135.173 4.89583C136.23 4.89583 136.995 4.13021 136.995 3.07292C136.995 2.01563 136.23 1.34375 135.173 1.34375C134.021 1.34375 133.35 2.10938 133.35 3.07292C133.35 4.13021 134.021 4.89583 135.173 4.89583Z" fill="#231F20"/>
<path fill-rule="evenodd" clip-rule="evenodd" d="M138.246 6.81787L142.949 20.5418H146.116L150.819 6.81787H147.46L145.538 13.7293C145.251 14.9741 144.965 16.0314 144.678 17.1825H144.579C144.387 16.0314 144.1 14.9741 143.814 13.7293L141.892 6.81787H138.246Z" fill="#231F20"/>
<path fill-rule="evenodd" clip-rule="evenodd" d="M162.533 14.5936C162.626 14.3019 162.626 13.8228 162.626 13.1509C162.626 9.98421 161.189 6.52588 157.251 6.52588C153.314 6.52588 151.105 9.98421 151.105 13.9217C151.105 18.0467 153.507 20.7342 157.637 20.7342C159.366 20.7342 160.902 20.4478 161.954 19.9686L161.475 17.6613C160.611 18.0467 159.553 18.2394 158.116 18.2394C156.1 18.2394 154.277 17.1821 154.277 14.5936H162.533ZM154.277 12.2863C154.371 10.8488 155.236 8.92692 157.059 8.92692C158.98 8.92692 159.553 10.7498 159.553 12.2863H154.277Z" fill="#231F20"/>
<path fill-rule="evenodd" clip-rule="evenodd" d="M167.521 19.6823C168.485 20.2552 170.308 20.7344 172.131 20.7344C176.548 20.7344 178.85 18.3333 178.85 15.1667C178.85 12.6719 177.506 10.9427 174.532 9.59896C172.131 8.54167 171.173 7.86979 171.173 6.43229C171.173 5.28125 172.037 4.13021 174.053 4.13021C175.589 4.13021 176.834 4.60937 177.412 4.89583L178.178 2.20833C177.412 1.82292 175.969 1.34375 174.146 1.34375C170.209 1.34375 167.813 3.74479 167.813 6.71875C167.813 9.21354 169.636 11.0417 172.417 12.1927C174.626 13.151 175.589 14.0156 175.589 15.4583C175.589 16.9896 174.433 18.0469 172.23 18.0469C170.787 18.0469 169.157 17.474 168.193 16.9896L167.521 19.6823Z" fill="#231F20"/>
<path fill-rule="evenodd" clip-rule="evenodd" d="M192.193 6.81787H188.834V15.2658C188.834 15.745 188.834 16.1304 188.74 16.4168C188.454 17.1825 187.683 18.047 186.433 18.047C184.803 18.047 184.131 16.7033 184.131 14.495V6.81787H180.865V14.9741C180.865 19.1981 182.693 20.8335 185.188 20.8335C187.396 20.8335 188.641 19.5835 189.219 18.6252L189.412 20.5418H192.292C192.193 19.3908 192.193 18.047 192.193 16.4168V6.81787Z" fill="#231F20"/>
<path fill-rule="evenodd" clip-rule="evenodd" d="M198.434 20.5417V6.81771H195.074V20.5417H198.434ZM196.803 4.89583C197.861 4.89583 198.626 4.13021 198.626 3.07292C198.626 2.01563 197.861 1.34375 196.803 1.34375C195.746 1.34375 194.98 2.10938 194.98 3.07292C194.98 4.13021 195.652 4.89583 196.71 4.89583H196.803Z" fill="#231F20"/>
<path fill-rule="evenodd" clip-rule="evenodd" d="M201.797 4.41667V6.81771H199.969V9.3125H201.797V15.9375C201.797 17.7604 202.177 19.0104 202.849 19.776C203.521 20.4479 204.484 20.7344 205.729 20.7344C206.693 20.7344 207.552 20.6406 208.036 20.4479L207.938 17.8542C207.651 18.0469 207.266 18.0469 206.786 18.0469C205.635 18.0469 205.057 17.375 205.057 15.6458V9.3125H208.13V6.81771H205.057V3.35938L201.797 4.41667Z" fill="#231F20"/>
<path fill-rule="evenodd" clip-rule="evenodd" d="M220.517 14.5936C220.611 14.3019 220.611 13.8228 220.611 13.1509C220.611 9.98421 219.173 6.52588 215.142 6.52588C211.298 6.52588 208.996 9.98421 208.996 13.9217C208.996 18.0467 211.397 20.7342 215.522 20.7342C217.35 20.7342 218.788 20.4478 219.939 19.9686L219.46 17.6613C218.501 18.0467 217.444 18.2394 216.007 18.2394C213.986 18.2394 212.262 17.1821 212.262 14.5936H220.517ZM212.262 12.2863C212.355 10.8488 213.126 8.92692 214.949 8.92692C216.965 8.92692 217.538 10.7498 217.444 12.2863H212.262Z" fill="#231F20"/>
</svg>
