<svg width="214" height="214" viewBox="0 0 214 214" fill="none" xmlns="http://www.w3.org/2000/svg">
<g clip-path="url(#clip0_378_207)">
<path d="M37.8931 2.67482H176.103C197.01 2.65393 213.979 19.59 213.996 40.501V40.572V173.432C214.017 194.339 197.081 211.308 176.174 211.325H176.103H37.8931C16.9863 211.346 0.0209108 194.41 1.23705e-05 173.503V173.432V40.5679C-0.0167064 19.6611 16.9152 2.69572 37.822 2.67482H37.8931Z" fill="#1769FF"/>
<path d="M37.8047 148.817V57.6877C37.8047 56.7974 38.068 56.3544 38.695 56.2624C40.3 56.1705 42.7952 56.0827 46.185 56.0827C49.5747 56.0827 53.14 55.9908 57.0647 55.903C60.9894 55.8152 64.5547 55.811 67.8566 55.811C75.7019 55.811 81.9464 56.7013 86.5816 58.3941C90.59 59.7274 94.2514 61.9552 97.2816 64.906C99.5888 67.2258 101.307 70.0721 102.276 73.1944C103.096 75.7607 103.518 78.4357 103.526 81.1274C103.589 83.9863 103.108 86.8327 102.101 89.5077C101.319 91.7187 100.136 93.7751 98.6275 95.5724C97.5533 96.9642 96.2576 98.168 94.7905 99.1377C96.8302 100.229 98.7487 101.541 100.496 103.062C102.749 105.052 104.567 107.48 105.846 110.197C107.455 113.654 108.249 117.441 108.166 121.252C108.241 126.724 106.556 132.069 103.351 136.504C99.8145 141.169 95.0204 144.73 89.5325 146.761C83.5555 149.164 76.4208 150.414 68.0405 150.414H58.5903C55.56 150.414 52.7972 150.414 50.302 150.322C47.8067 150.23 45.5789 150.23 43.7022 150.142C41.8339 150.05 40.2289 150.05 38.8872 150.05C38.1641 150.063 37.8047 149.62 37.8047 148.817ZM57.1525 72.9394V92.9141H66.8744C69.4575 92.9141 71.9611 93.0061 74.4564 93.0938C76.2536 93.0938 78.0425 93.2736 79.8064 93.6288C81.0603 92.5421 82.1177 91.2464 82.9244 89.7919C83.7812 88.0113 84.2076 86.0594 84.1741 84.0866C84.2745 81.8254 83.6141 79.5976 82.2975 77.7586C80.8973 76.0533 79.0457 74.7868 76.9475 74.1055C74.0342 73.2069 70.9914 72.7847 67.9444 72.8558H63.7564C62.5066 72.8558 61.3447 72.8558 60.3666 72.9478C59.3844 72.8474 58.3144 72.9394 57.1525 72.9394ZM57.1525 109.762V133.482C58.7575 133.574 60.3625 133.662 62.0594 133.662C63.7564 133.662 65.6247 133.754 67.9444 133.754C71.4637 133.825 74.9746 133.407 78.3811 132.504C80.9892 131.865 83.3466 130.473 85.1564 128.487C86.7196 126.577 87.5388 124.174 87.4761 121.712C87.5304 119.321 86.8826 116.96 85.5994 114.937C84.3497 113.06 82.0341 111.635 78.7364 110.749C77.4448 110.423 76.1324 110.189 74.8116 110.034C73.0604 109.854 71.3049 109.771 69.5536 109.771H57.1566V109.762H57.1525Z" fill="white"/>
<path d="M165.85 119.748H137.587C137.93 122.448 138.87 125.043 140.354 127.33C141.93 129.733 144.204 131.601 146.866 132.68C150.482 134.163 154.373 134.866 158.281 134.728C161.386 134.728 164.492 134.464 167.556 133.921C170.431 133.403 173.244 132.563 175.936 131.426C176.379 131.07 176.651 131.246 176.651 132.14V145.779C176.634 146.142 176.575 146.502 176.471 146.849C176.308 147.095 176.099 147.313 175.844 147.476C172.86 148.888 169.717 149.938 166.477 150.594C162.306 151.392 158.064 151.756 153.817 151.664C147.042 151.664 141.332 150.594 136.697 148.546C132.338 146.648 128.484 143.747 125.462 140.078C122.637 136.642 120.543 132.667 119.305 128.4C116.693 119.505 116.818 110.03 119.661 101.207C121.082 96.7427 123.355 92.5964 126.344 88.9935C129.295 85.4283 132.973 82.5443 137.136 80.5255C141.805 78.3855 146.895 77.3197 152.024 77.4074C156.78 77.2946 161.499 78.2434 165.842 80.1744C169.524 81.8337 172.743 84.3792 175.209 87.5725C177.579 90.6194 179.388 94.0593 180.559 97.7374C181.691 101.253 182.268 104.922 182.256 108.617C182.256 110.757 182.164 112.634 182.076 114.322C181.988 116.011 181.813 117.261 181.721 118.067C181.641 118.707 181.115 119.192 180.471 119.229C179.936 119.229 178.958 119.321 177.533 119.409C175.815 119.606 174.089 119.693 172.362 119.672C170.31 119.66 168.17 119.748 165.85 119.748ZM137.587 105.75H156.404C158.724 105.75 160.421 105.75 161.491 105.658C162.181 105.645 162.866 105.591 163.539 105.478V104.588C163.543 103.468 163.359 102.352 163.004 101.286C161.399 96.2746 156.676 92.9266 151.414 93.0813C146.469 92.8012 141.826 95.4553 139.552 99.8566C138.549 101.696 137.884 103.685 137.587 105.75Z" fill="white"/>
</g>
<defs>
<clipPath id="clip0_378_207">
<rect width="214" height="214" fill="white"/>
</clipPath>
</defs>
</svg>
