<svg width="158" height="237" viewBox="0 0 158 237" fill="none" xmlns="http://www.w3.org/2000/svg">
<g clip-path="url(#clip0_377_177)">
<path d="M39.5077 237C61.3074 237 78.9998 219.304 78.9998 197.5V158H39.5077C17.7081 158 0.015625 175.696 0.015625 197.5C0.015625 219.304 17.7081 237 39.5077 237Z" fill="#0ACF83"/>
<path d="M0.015625 118.5C0.015625 96.696 17.7081 79 39.5077 79H78.9998V158H39.5077C17.7081 158 0.015625 140.304 0.015625 118.5Z" fill="#A259FF"/>
<path d="M0.015625 39.5C0.015625 17.696 17.7081 0 39.5077 0H78.9998V79H39.5077C17.7081 79 0.015625 61.304 0.015625 39.5Z" fill="#F24E1E"/>
<path d="M79 0H118.492C140.292 0 157.984 17.696 157.984 39.5C157.984 61.304 140.292 79 118.492 79H79V0Z" fill="#FF7262"/>
<path d="M157.984 118.5C157.984 140.304 140.292 158 118.492 158C96.6925 158 79 140.304 79 118.5C79 96.696 96.6925 79 118.492 79C140.292 79 157.984 96.696 157.984 118.5Z" fill="#1ABCFE"/>
</g>
<defs>
<clipPath id="clip0_377_177">
<rect width="158" height="237" fill="white"/>
</clipPath>
</defs>
</svg>
