<svg width="210" height="210" viewBox="0 0 210 210" fill="none" xmlns="http://www.w3.org/2000/svg">
<g clip-path="url(#clip0_378_215)">
<path d="M0 0H210V210H0" fill="white"/>
<path d="M31.1719 77.9297V148.066C31.1719 156.27 35.2734 160.371 43.4766 160.371H64.8047V77.9297" fill="#4285F4"/>
<path d="M145.195 77.9297V160.371H166.523C174.727 160.371 178.828 156.27 178.828 148.066V77.9297" fill="#34A853"/>
<path d="M143.555 104.59V61.1131L155.039 52.4998C164.883 45.117 178.828 53.3201 178.828 64.8045V77.9295" fill="#FBBC04"/>
<path d="M63.1641 102.129V58.6523L105 90.2344L145.195 59.8828V103.359L105 133.711" fill="#EA4335"/>
<path d="M31.1719 77.9299V64.8049C31.1719 52.9104 45.1172 45.1174 54.9609 52.5002L64.8047 59.883V103.36" fill="#C5221F"/>
</g>
<defs>
<clipPath id="clip0_378_215">
<rect width="210" height="210" rx="30" fill="white"/>
</clipPath>
</defs>
</svg>
