<svg width="199" height="199" viewBox="0 0 199 199" fill="none" xmlns="http://www.w3.org/2000/svg">
<path d="M41.8438 183.026L29.0215 39.0811H169.977L157.155 182.971L99.3905 199L41.8438 183.026Z" fill="#E44D26"/>
<path d="M99.5 186.784L146.156 173.849L157.156 50.854H99.5V186.784Z" fill="#F16529"/>
<path d="M99.5002 104.254H76.1177L74.5163 86.1765H99.5002V68.5464H99.4457H55.2227L55.6657 73.2415L59.9761 121.888H99.5002V104.254Z" fill="#EBEBEB"/>
<path d="M99.4989 150.078L99.4445 150.136L79.766 144.773L78.4951 130.734H68.9299H60.8027L63.2358 158.427L99.4445 168.486L99.4989 168.431V150.078Z" fill="#EBEBEB"/>
<path d="M42.1191 0H51.0741V8.84617H59.2557V0H68.2107V26.8106H59.2557V17.8012H51.0741V26.8106H42.1191V0Z" fill="black"/>
<path d="M80.0423 8.90059H72.1367V0H96.9029V8.90059H88.9973V26.8106H80.0423V8.90059Z" fill="black"/>
<path d="M100.883 0H110.226L115.975 9.4525L121.719 0H131.063V26.8106H122.162V13.5413L115.971 23.1027H115.804L109.612 13.5413V26.865H100.824V0H100.883Z" fill="black"/>
<path d="M135.541 0H144.496V17.9644H157.101V26.8106H135.541V0Z" fill="black"/>
<path d="M99.4453 104.253V121.887H121.168L119.124 144.772L99.4453 150.078V168.485L135.596 158.426L135.872 155.441L140.019 109.007L140.462 104.253H135.708H99.4453Z" fill="white"/>
<path d="M99.4453 68.5464V79.4914V86.1221V86.1765H142.009H142.063L142.452 82.1965L143.225 73.2415L143.668 68.5464H99.4453Z" fill="white"/>
</svg>
