<svg width="83" height="80" viewBox="0 0 83 80" fill="none" xmlns="http://www.w3.org/2000/svg">
<g clip-path="url(#clip0_377_154)">
<mask id="mask0_377_154" style="mask-type:luminance" maskUnits="userSpaceOnUse" x="0" y="0" width="83" height="80">
<path d="M82.0513 0H0V80H82.0513V0Z" fill="white"/>
</mask>
<g mask="url(#mask0_377_154)">
<path d="M67.5214 0H14.5299C6.50526 0 0 6.50526 0 14.5299V65.4701C0 73.4947 6.50526 80 14.5299 80H67.5214C75.546 80 82.0513 73.4947 82.0513 65.4701V14.5299C82.0513 6.50526 75.546 0 67.5214 0Z" fill="#330000"/>
<path d="M39.7614 48.0096H27.0466L24.4596 56.0459C24.4244 56.1924 24.3391 56.3221 24.2185 56.4125C24.0979 56.503 23.9496 56.5485 23.7991 56.5413H17.3591C16.9918 56.5413 16.8634 56.3395 16.9738 55.9358L27.9822 24.2312C28.0924 23.901 28.2025 23.5249 28.3126 23.1028C28.4566 22.3684 28.5303 21.622 28.5328 20.8736C28.5253 20.8213 28.5301 20.7679 28.5468 20.7178C28.5636 20.6676 28.5917 20.6221 28.6291 20.5847C28.6665 20.5473 28.7121 20.5191 28.7622 20.5024C28.8124 20.4856 28.8657 20.4808 28.9181 20.4883H37.6697C37.9262 20.4883 38.0729 20.58 38.1101 20.7635L50.6049 55.9908C50.715 56.3581 50.6048 56.5416 50.2746 56.5413H43.119C42.9961 56.5549 42.8724 56.5233 42.7711 56.4524C42.6699 56.3815 42.5978 56.2761 42.5686 56.156L39.7614 48.0096ZM29.0281 41.0743H37.7248C37.5047 40.3407 37.2478 39.515 36.9543 38.5973C36.6601 37.6805 36.3483 36.6989 36.0186 35.6525C35.6883 34.6068 35.3579 33.561 35.0277 32.5151C34.6975 31.4693 34.3948 30.4602 34.1196 29.4877C33.8443 28.5159 33.5966 27.6261 33.3766 26.8182H33.3215C33.0116 28.3048 32.6258 29.7745 32.1656 31.2216C31.6513 32.8729 31.1283 34.5609 30.5968 36.2855C30.0644 38.0108 29.5415 39.6071 29.0281 41.0743Z" fill="#FF9A00"/>
<path d="M58.0346 26.3229C57.4732 26.3455 56.9134 26.2493 56.3917 26.0406C55.87 25.8319 55.3983 25.5155 55.0073 25.112C54.6174 24.691 54.3145 24.1971 54.1161 23.6587C53.9177 23.1202 53.8277 22.5479 53.8513 21.9746C53.8313 21.4069 53.9312 20.8414 54.1446 20.315C54.358 19.7886 54.6801 19.3131 55.0897 18.9197C55.4954 18.5303 55.9743 18.2252 56.4987 18.0221C57.023 17.8189 57.5825 17.7218 58.1446 17.7363C59.4657 17.7363 60.5024 18.1307 61.2546 18.9197C61.6343 19.3297 61.9294 19.8105 62.123 20.3347C62.3166 20.8589 62.4049 21.4162 62.3829 21.9746C62.4059 22.5501 62.313 23.1245 62.1097 23.6634C61.9064 24.2024 61.5969 24.695 61.1995 25.112C60.7842 25.5214 60.2885 25.8404 59.7438 26.0488C59.1991 26.2572 58.6172 26.3505 58.0346 26.3229ZM54.2365 55.9909V29.6805C54.2365 29.3503 54.3828 29.1851 54.6769 29.1851H61.4472C61.7406 29.1851 61.8873 29.3502 61.8876 29.6805V55.9909C61.8876 56.3582 61.7408 56.5416 61.4472 56.5414H54.732C54.4018 56.5414 54.2367 56.3579 54.2365 55.9909Z" fill="#FF9A00"/>
</g>
</g>
<defs>
<clipPath id="clip0_377_154">
<rect width="83" height="80" fill="white"/>
</clipPath>
</defs>
</svg>
