<svg width="83" height="80" viewBox="0 0 83 80" fill="none" xmlns="http://www.w3.org/2000/svg">
<g clip-path="url(#clip0_377_162)">
<mask id="mask0_377_162" style="mask-type:luminance" maskUnits="userSpaceOnUse" x="0" y="0" width="83" height="80">
<path d="M82.0513 0H0V80H82.0513V0Z" fill="white"/>
</mask>
<g mask="url(#mask0_377_162)">
<path d="M67.5214 0H14.5299C6.50526 0 0 6.50526 0 14.5299V65.4701C0 73.4947 6.50526 80 14.5299 80H67.5214C75.546 80 82.0513 73.4947 82.0513 65.4701V14.5299C82.0513 6.50526 75.546 0 67.5214 0Z" fill="#49021F"/>
<path d="M29.797 20.9286V55.9908C29.797 56.3581 29.6319 56.5415 29.3017 56.5413H22.6414C22.3474 56.5413 22.2007 56.3578 22.2012 55.9908V20.9286C22.2012 20.6353 22.3663 20.4885 22.6965 20.4882H29.3567C29.4165 20.4797 29.4774 20.4853 29.5348 20.5044C29.5921 20.5235 29.6441 20.5557 29.6868 20.5984C29.7296 20.6412 29.7618 20.6932 29.7809 20.7505C29.8 20.8078 29.8055 20.8688 29.797 20.9286Z" fill="#FF3366"/>
<path d="M49.5033 57.0919C46.9698 57.1304 44.4596 56.6039 42.1551 55.5506C40.0083 54.5571 38.2137 52.9352 37.0087 50.8995C35.7607 48.8268 35.1368 46.2306 35.1372 43.111C35.1164 40.5847 35.762 38.0977 37.0087 35.9004C38.2928 33.6622 40.1813 31.831 42.4579 30.6163C44.8427 29.2952 47.7232 28.6347 51.0995 28.6347C51.2827 28.6347 51.5212 28.6439 51.815 28.6623C52.1083 28.6812 52.4569 28.7087 52.8609 28.7448V17.9014C52.8609 17.6451 52.971 17.5161 53.1912 17.5161H60.1265C60.1713 17.5097 60.2171 17.5138 60.2601 17.5282C60.3031 17.5425 60.3421 17.5666 60.3742 17.5986C60.4063 17.6307 60.4304 17.6697 60.4447 17.7127C60.4591 17.7557 60.4632 17.8015 60.4568 17.8463V50.3766C60.4568 51.001 60.4843 51.6799 60.5393 52.4132C60.5944 53.1476 60.6403 53.8081 60.677 54.3947C60.6838 54.509 60.6558 54.6228 60.5969 54.721C60.538 54.8192 60.4507 54.8973 60.3467 54.9452C58.5575 55.6914 56.6939 56.2449 54.7874 56.5964C53.0443 56.9181 51.2759 57.0839 49.5033 57.0919ZM52.8608 50.2665V35.2399C52.5633 35.1593 52.2596 35.104 51.9527 35.0747C51.5778 35.037 51.2011 35.0187 50.8243 35.0197C49.4886 35.0064 48.1686 35.3081 46.9713 35.9004C45.8052 36.48 44.8095 37.3525 44.0816 38.4323C43.3291 39.5332 42.953 40.9827 42.9532 42.7807C42.9264 43.9806 43.1223 45.175 43.5311 46.3034C43.8638 47.2127 44.3896 48.0389 45.0724 48.7253C45.726 49.3568 46.5174 49.8279 47.3841 50.1014C48.2996 50.3979 49.2565 50.5465 50.2188 50.5417C50.7323 50.5417 51.2093 50.5234 51.6499 50.4867C52.0601 50.4558 52.466 50.382 52.8608 50.2665Z" fill="#FF3366"/>
</g>
</g>
<defs>
<clipPath id="clip0_377_162">
<rect width="83" height="80" fill="white"/>
</clipPath>
</defs>
</svg>
