<svg width="65" height="65" viewBox="0 0 65 65" fill="none" xmlns="http://www.w3.org/2000/svg">
<g clip-path="url(#clip0_378_212)">
<path d="M60.0666 0.546875H5.53064C2.92664 0.546875 0.806641 2.61288 0.806641 5.15688V59.9249C0.806641 62.4749 2.92664 64.5449 5.53064 64.5449H60.0706C62.6806 64.5449 64.8066 62.4749 64.8066 59.9249V5.15688C64.8066 2.61288 62.6806 0.546875 60.0666 0.546875Z" fill="#0177B5"/>
<path d="M10.2971 24.5389H19.8071V55.0789H10.2971V24.5389ZM15.0451 9.33887C18.0791 9.33887 20.5451 11.8049 20.5451 14.8389C20.5451 17.8729 18.0791 20.3449 15.0471 20.3449C13.5876 20.3417 12.1887 19.7607 11.1565 18.7288C10.1243 17.697 9.54276 16.2984 9.53906 14.8389C9.53906 14.1161 9.68152 13.4004 9.9583 12.7327C10.2351 12.065 10.6407 11.4585 11.1521 10.9477C11.6635 10.4369 12.2705 10.0319 12.9385 9.75581C13.6064 9.47976 14.3223 9.33808 15.0451 9.33887ZM25.7451 24.5389H34.8491V28.7129H34.9751C36.2431 26.3129 39.3391 23.7809 43.9751 23.7809C53.5871 23.7809 55.3611 30.1069 55.3611 38.3289V55.0809H45.8751V40.2249C45.8751 36.6849 45.8111 32.1249 40.9431 32.1249C36.0031 32.1249 35.2431 35.9849 35.2431 39.9649V55.0729H25.7591V24.5329L25.7451 24.5389Z" fill="white"/>
</g>
<defs>
<clipPath id="clip0_378_212">
<rect width="64" height="64" fill="white" transform="translate(0.806641 0.544922)"/>
</clipPath>
</defs>
</svg>
