<svg width="225" height="59" viewBox="0 0 225 59" fill="none" xmlns="http://www.w3.org/2000/svg">
<path d="M3.034 15.3H9.963V44H3.034V15.3ZM7.38 20.999V15.3H12.997C15.4297 15.3 17.466 15.6827 19.106 16.448C20.7733 17.186 22.0307 18.252 22.878 19.646C23.7253 21.04 24.149 22.721 24.149 24.689C24.149 26.6023 23.7253 28.2697 22.878 29.691C22.0307 31.085 20.7733 32.1647 19.106 32.93C17.466 33.668 15.4297 34.037 12.997 34.037H7.38V28.338H12.997C14.391 28.338 15.4843 28.0237 16.277 27.395C17.0697 26.7663 17.466 25.8643 17.466 24.689C17.466 23.4863 17.0697 22.5707 16.277 21.942C15.4843 21.3133 14.391 20.999 12.997 20.999H7.38ZM33.2721 25.14V44H27.1631V25.14H33.2721ZM38.7251 31.536C38.3971 31.208 38.0418 30.9483 37.6591 30.757C37.3038 30.5657 36.8528 30.47 36.3061 30.47C35.7048 30.47 35.1718 30.634 34.7071 30.962C34.2425 31.29 33.8871 31.7683 33.6411 32.397C33.3951 33.0257 33.2721 33.791 33.2721 34.693L31.7961 32.52C31.7961 31.0167 32.0831 29.6773 32.6571 28.502C33.2585 27.3267 34.0375 26.3973 34.9941 25.714C35.9508 25.0307 36.9485 24.689 37.9871 24.689C38.6705 24.689 39.3265 24.8257 39.9551 25.099C40.5838 25.3723 41.0621 25.755 41.3901 26.247L38.7251 31.536ZM42.312 34.57C42.312 32.5747 42.7767 30.839 43.706 29.363C44.6353 27.887 45.92 26.739 47.56 25.919C49.2 25.099 51.045 24.689 53.095 24.689C55.145 24.689 56.9763 25.099 58.589 25.919C60.229 26.739 61.5137 27.887 62.443 29.363C63.3997 30.839 63.878 32.5747 63.878 34.57C63.878 36.538 63.3997 38.26 62.443 39.736C61.5137 41.212 60.229 42.36 58.589 43.18C56.9763 44 55.145 44.41 53.095 44.41C51.045 44.41 49.2 44 47.56 43.18C45.92 42.36 44.6353 41.212 43.706 39.736C42.7767 38.26 42.312 36.538 42.312 34.57ZM48.667 34.57C48.667 35.554 48.872 36.4013 49.282 37.112C49.692 37.7953 50.225 38.3283 50.881 38.711C51.537 39.0937 52.275 39.285 53.095 39.285C53.8877 39.285 54.612 39.0937 55.268 38.711C55.9513 38.3283 56.4843 37.7953 56.867 37.112C57.277 36.4013 57.482 35.554 57.482 34.57C57.482 33.586 57.277 32.7387 56.867 32.028C56.4843 31.3173 55.9513 30.7707 55.268 30.388C54.612 30.0053 53.8877 29.814 53.095 29.814C52.275 29.814 51.537 30.0053 50.881 30.388C50.225 30.7707 49.692 31.3173 49.282 32.028C48.872 32.7387 48.667 33.586 48.667 34.57ZM65.3886 25.14H78.0166V30.265H65.3886V25.14ZM68.7096 18.58H74.6546V44H68.7096V18.58ZM79.5483 34.57C79.5483 32.5747 80.013 30.839 80.9423 29.363C81.8717 27.887 83.1563 26.739 84.7963 25.919C86.4363 25.099 88.2813 24.689 90.3313 24.689C92.3813 24.689 94.2127 25.099 95.8253 25.919C97.4653 26.739 98.75 27.887 99.6793 29.363C100.636 30.839 101.114 32.5747 101.114 34.57C101.114 36.538 100.636 38.26 99.6793 39.736C98.75 41.212 97.4653 42.36 95.8253 43.18C94.2127 44 92.3813 44.41 90.3313 44.41C88.2813 44.41 86.4363 44 84.7963 43.18C83.1563 42.36 81.8717 41.212 80.9423 39.736C80.013 38.26 79.5483 36.538 79.5483 34.57ZM85.9033 34.57C85.9033 35.554 86.1083 36.4013 86.5183 37.112C86.9283 37.7953 87.4613 38.3283 88.1173 38.711C88.7733 39.0937 89.5113 39.285 90.3313 39.285C91.124 39.285 91.8483 39.0937 92.5043 38.711C93.1877 38.3283 93.7207 37.7953 94.1033 37.112C94.5133 36.4013 94.7183 35.554 94.7183 34.57C94.7183 33.586 94.5133 32.7387 94.1033 32.028C93.7207 31.3173 93.1877 30.7707 92.5043 30.388C91.8483 30.0053 91.124 29.814 90.3313 29.814C89.5113 29.814 88.7733 30.0053 88.1173 30.388C87.4613 30.7707 86.9283 31.3173 86.5183 32.028C86.1083 32.7387 85.9033 33.586 85.9033 34.57ZM102.625 25.14H115.253V30.265H102.625V25.14ZM105.946 18.58H111.891V44H105.946V18.58ZM137.203 25.14L124.903 53.02H118.671L123.263 42.483L115.104 25.14H121.91L128.019 40.269L124.821 40.228L130.848 25.14H137.203ZM145.423 53.02H139.232V25.14H145.423V53.02ZM160.839 34.57C160.839 36.7567 160.401 38.6017 159.527 40.105C158.679 41.6083 157.572 42.7427 156.206 43.508C154.866 44.2733 153.418 44.656 151.86 44.656C150.22 44.656 148.798 44.246 147.596 43.426C146.42 42.5787 145.518 41.4033 144.89 39.9C144.261 38.3693 143.947 36.5927 143.947 34.57C143.947 32.52 144.261 30.7433 144.89 29.24C145.518 27.7367 146.42 26.575 147.596 25.755C148.798 24.9077 150.22 24.484 151.86 24.484C153.418 24.484 154.866 24.8667 156.206 25.632C157.572 26.3973 158.679 27.5317 159.527 29.035C160.401 30.511 160.839 32.356 160.839 34.57ZM154.32 34.57C154.32 33.586 154.115 32.7523 153.705 32.069C153.295 31.3857 152.748 30.8663 152.065 30.511C151.381 30.1557 150.63 29.978 149.81 29.978C149.099 29.978 148.402 30.1557 147.719 30.511C147.063 30.839 146.516 31.3447 146.079 32.028C145.641 32.7113 145.423 33.5587 145.423 34.57C145.423 35.5813 145.641 36.4287 146.079 37.112C146.516 37.7953 147.063 38.3147 147.719 38.67C148.402 38.998 149.099 39.162 149.81 39.162C150.63 39.162 151.381 38.9843 152.065 38.629C152.748 38.2737 153.295 37.7543 153.705 37.071C154.115 36.3877 154.32 35.554 154.32 34.57ZM174.171 44.41C171.985 44.41 170.085 44.0137 168.472 43.221C166.887 42.401 165.657 41.253 164.782 39.777C163.908 38.301 163.47 36.5653 163.47 34.57C163.47 32.5473 163.894 30.798 164.741 29.322C165.589 27.846 166.805 26.7117 168.39 25.919C170.003 25.1263 171.903 24.73 174.089 24.73C176.276 24.73 178.121 25.1127 179.624 25.878C181.128 26.616 182.276 27.6957 183.068 29.117C183.861 30.5383 184.257 32.2603 184.257 34.283C184.257 34.5837 184.257 34.8843 184.257 35.185C184.257 35.4583 184.23 35.6907 184.175 35.882H166.955V32.438H178.599L177.123 34.324C177.26 34.1327 177.369 33.9003 177.451 33.627C177.561 33.3263 177.615 33.0803 177.615 32.889C177.615 32.069 177.465 31.3583 177.164 30.757C176.864 30.1557 176.44 29.691 175.893 29.363C175.347 29.035 174.704 28.871 173.966 28.871C173.037 28.871 172.258 29.076 171.629 29.486C171.001 29.896 170.522 30.5247 170.194 31.372C169.894 32.192 169.73 33.2307 169.702 34.488C169.702 35.636 169.866 36.62 170.194 37.44C170.522 38.26 171.014 38.8887 171.67 39.326C172.326 39.736 173.133 39.941 174.089 39.941C175.183 39.941 176.112 39.736 176.877 39.326C177.67 38.916 178.299 38.301 178.763 37.481L184.298 38.834C183.314 40.6927 181.975 42.0867 180.28 43.016C178.613 43.9453 176.577 44.41 174.171 44.41ZM198.773 44L211.565 30.757C212.33 29.9097 212.986 29.1443 213.533 28.461C214.107 27.7777 214.531 27.108 214.804 26.452C215.105 25.7687 215.255 25.0443 215.255 24.279C215.255 23.8417 215.173 23.4043 215.009 22.967C214.845 22.5297 214.599 22.147 214.271 21.819C213.943 21.4637 213.533 21.1903 213.041 20.999C212.549 20.7803 211.975 20.671 211.319 20.671C210.444 20.671 209.665 20.8897 208.982 21.327C208.326 21.7643 207.82 22.3793 207.465 23.172C207.137 23.9647 206.973 24.8803 206.973 25.919H200.167C200.167 23.869 200.591 21.9967 201.438 20.302C202.285 18.6073 203.556 17.2543 205.251 16.243C206.973 15.2317 209.064 14.726 211.524 14.726C213.301 14.726 214.872 14.9993 216.239 15.546C217.606 16.0653 218.74 16.776 219.642 17.678C220.571 18.5527 221.268 19.523 221.733 20.589C222.198 21.655 222.43 22.7347 222.43 23.828C222.43 25.386 222.047 26.821 221.282 28.133C220.517 29.4177 219.519 30.593 218.289 31.659L211.606 37.645H223.086V44H198.773Z" fill="white"/>
</svg>
