<svg width="271" height="264" viewBox="0 0 271 264" fill="none" xmlns="http://www.w3.org/2000/svg">
<g clip-path="url(#clip0_377_173)">
<path d="M47.9896 0.0268555H223.01C249.546 0.0268555 271 21.4584 271 47.9657V216.034C271 242.541 249.546 263.973 223.01 263.973H47.9896C21.4542 263.973 0 242.541 0 216.034V47.9657C0 21.4584 21.4542 0.0268555 47.9896 0.0268555Z" fill="#00005B"/>
<path d="M64.3633 185.015V68.8336C64.3633 68.044 64.702 67.5928 65.4924 67.5928C67.412 67.5928 69.2187 67.5928 71.8158 67.48C74.5258 67.3672 77.3487 67.3672 80.3974 67.2544C83.4462 67.1416 86.7208 67.1416 90.2212 67.0288C93.7216 66.916 97.1091 66.916 100.497 66.916C109.756 66.916 117.434 68.044 123.757 70.4127C129.403 72.3303 134.597 75.4886 138.888 79.6621C142.502 83.2716 145.325 87.6707 147.131 92.521C148.825 97.2585 149.728 102.109 149.728 107.185C149.728 116.885 147.47 124.894 142.953 131.211C138.437 137.527 132.113 142.265 124.774 144.972C117.095 147.792 108.627 148.807 99.3674 148.807C96.6574 148.807 94.8508 148.807 93.7216 148.694C92.5924 148.581 91.0116 148.581 88.8662 148.581V184.789C88.9791 185.579 88.4145 186.256 87.6241 186.368H65.7183C64.8149 186.368 64.3633 185.917 64.3633 184.902V185.015ZM88.9791 89.4755V127.375C90.56 127.488 92.0279 127.601 93.3829 127.601H99.3674C103.771 127.601 108.175 126.924 112.353 125.571C115.966 124.555 119.128 122.412 121.612 119.592C123.983 116.772 125.112 112.937 125.112 107.974C125.225 104.478 124.322 100.981 122.515 97.9353C120.596 95.0026 117.886 92.7466 114.611 91.5058C110.433 89.8139 105.917 89.1371 101.287 89.2499C98.3512 89.2499 95.7541 89.2499 93.6087 89.3627C91.3504 89.2499 89.7695 89.3627 88.9791 89.4755ZM165.988 96.1305H185.749C186.878 96.1305 187.781 96.9201 188.12 97.9353C188.459 98.8377 188.685 99.7401 188.797 100.755C189.023 101.883 189.249 103.124 189.362 104.252C189.475 105.493 189.588 106.846 189.588 108.313C192.975 104.365 197.04 101.094 201.67 98.6121C206.864 95.6794 212.849 94.213 218.833 94.213C219.624 94.1002 220.301 94.6642 220.414 95.4538V117.9C220.414 118.803 219.85 119.141 218.607 119.141C214.542 119.028 210.365 119.367 206.412 120.269C203.138 120.946 199.976 121.961 196.927 123.315C194.782 124.33 192.75 125.683 191.169 127.488V185.015C191.169 186.143 190.717 186.594 189.701 186.594H167.456C166.553 186.707 165.762 186.143 165.65 185.24V122.3C165.65 119.592 165.65 116.772 165.537 113.84C165.424 110.907 165.424 107.974 165.311 105.042C165.311 102.447 165.085 99.9657 164.859 97.3713C164.746 96.8073 165.085 96.2433 165.65 96.1305C165.65 96.0177 165.875 96.0177 165.988 96.1305Z" fill="#9999FF"/>
</g>
<defs>
<clipPath id="clip0_377_173">
<rect width="271" height="264" fill="white"/>
</clipPath>
</defs>
</svg>
