<svg width="128" height="128" viewBox="0 0 128 128" fill="none" xmlns="http://www.w3.org/2000/svg">
<path d="M22.667 1.6001H105.333C117.867 1.6001 128 11.7331 128 24.2671V103.733C128 116.267 117.867 126.4 105.333 126.4H22.667C10.133 126.4 0 116.267 0 103.733V24.2671C0 11.7331 10.133 1.6001 22.667 1.6001Z" fill="#001E36"/>
<path d="M45.8678 33.333C44.2678 33.333 42.6678 33.333 41.0148 33.387C39.3608 33.44 37.8138 33.44 36.3738 33.494C34.9338 33.547 33.6008 33.547 32.3208 33.6C31.0938 33.653 30.2408 33.653 29.3338 33.653C28.9608 33.653 28.8008 33.866 28.8008 34.24V89.12C28.8008 89.6 29.0138 89.814 29.4408 89.814H39.7878C40.1608 89.76 40.4278 89.44 40.3738 89.067V71.947C41.3868 71.947 42.1338 71.947 42.6678 72C43.2008 72.053 44.0538 72.053 45.3338 72.053C49.7078 72.053 53.7078 71.573 57.3338 70.24C60.8008 68.96 63.7878 66.72 65.9208 63.733C68.0538 60.747 69.1208 56.96 69.1208 52.373C69.1208 49.973 68.6948 47.68 67.8948 45.44C67.0477 43.1576 65.7196 41.0841 64.0008 39.36C61.9726 37.3896 59.5312 35.8955 56.8538 34.986C53.8668 33.866 50.2408 33.333 45.8678 33.333ZM47.0578 43.838C48.9578 43.874 50.8078 44.206 52.5338 44.906C54.0808 45.493 55.3608 46.56 56.2678 47.946C57.1195 49.38 57.5451 51.0269 57.4948 52.694C57.4948 55.04 56.9608 56.854 55.8408 58.187C54.6668 59.52 53.1738 60.534 51.4678 61.014C49.4938 61.654 47.4138 61.973 45.3338 61.973H42.5068C41.8668 61.973 41.1748 61.92 40.4278 61.867V43.947C40.8008 43.893 41.5478 43.84 42.6148 43.894C43.6278 43.84 44.8538 43.84 46.2408 43.84C46.5138 43.833 46.7868 43.832 47.0578 43.838ZM91.7878 46.561C88.0008 46.561 84.8538 47.147 82.3478 48.427C80.0548 49.494 78.0808 51.2 76.7478 53.333C75.5748 55.307 74.9338 57.493 74.9338 59.787C74.8881 61.6738 75.3096 63.5425 76.1608 65.227C77.1585 67.0205 78.5434 68.569 80.2148 69.76C82.5611 71.3644 85.107 72.6553 87.7878 73.6C90.4008 74.613 92.1608 75.413 93.0148 76.106C93.8678 76.8 94.2948 77.493 94.2948 78.24C94.2948 79.2 93.7078 80.107 92.8548 80.48C91.8948 80.96 90.4548 81.227 88.4278 81.227C86.2948 81.227 84.1608 80.96 82.1338 80.427C79.8065 79.9067 77.5751 79.025 75.5208 77.814C75.3608 77.707 75.2008 77.654 75.0408 77.761C74.8808 77.867 74.8278 78.08 74.8278 78.24V87.52C74.7748 87.947 75.0408 88.32 75.4148 88.533C77.1443 89.3411 78.9737 89.9151 80.8548 90.24C83.2548 90.72 85.6538 90.933 88.1068 90.933C91.9468 90.933 95.1478 90.347 97.7608 89.227C100.161 88.267 102.241 86.614 103.734 84.48C105.131 82.3818 105.857 79.9077 105.814 77.387C105.866 75.4828 105.445 73.5954 104.588 71.894C103.574 70.08 102.134 68.587 100.374 67.467C97.7989 65.8503 95.0422 64.5432 92.1608 63.573C90.8739 63.0407 89.6104 62.4535 88.3738 61.813C87.6808 61.44 87.0408 60.96 86.5608 60.373C86.2408 59.946 86.0278 59.467 86.0278 58.987C86.0278 58.507 86.1878 57.974 86.4538 57.547C86.8278 57.014 87.4138 56.64 88.1068 56.48C89.1208 56.214 90.2408 56.053 91.3068 56.106C93.3338 56.106 95.3068 56.373 97.2808 56.8C99.0948 57.173 100.801 57.76 102.401 58.614C102.614 58.72 102.881 58.72 103.361 58.614C103.444 58.5525 103.512 58.472 103.559 58.3791C103.605 58.2863 103.629 58.1838 103.628 58.08V49.387C103.628 49.173 103.574 48.96 103.521 48.747C103.414 48.534 103.201 48.32 102.988 48.267C101.517 47.6654 99.9756 47.2531 98.4008 47.04C96.2109 46.7211 94.0008 46.5617 91.7878 46.561Z" fill="#31A8FF"/>
</svg>
