<svg width="919" height="217" viewBox="0 0 919 217" fill="none" xmlns="http://www.w3.org/2000/svg">
<path d="M10.05 56H39.15V124.1C39.15 128.9 40.4 132.8 42.9 135.8C45.4 138.7 49.15 140.15 54.15 140.15C59.25 140.15 63.05 138.7 65.55 135.8C68.05 132.8 69.3 128.9 69.3 124.1V56H98.4V126.5C98.4 133.6 97.25 139.65 94.95 144.65C92.65 149.65 89.45 153.75 85.35 156.95C81.25 160.05 76.55 162.35 71.25 163.85C65.95 165.35 60.25 166.1 54.15 166.1C48.15 166.1 42.45 165.35 37.05 163.85C31.75 162.35 27.05 160.05 22.95 156.95C18.95 153.75 15.8 149.65 13.5 144.65C11.2 139.65 10.05 133.6 10.05 126.5V56ZM178.298 56H214.598L180.998 107.45L216.848 161H180.548L162.998 128.75L144.848 161H108.698L145.298 107.45L112.448 56H148.598L163.298 83.9L178.298 56ZM301.361 114.65H331.211L362.711 161H328.811L301.361 114.65ZM272.861 56H301.961V161H272.861V56ZM291.461 80.6V56H314.111C323.711 56 331.611 57.5 337.811 60.5C344.111 63.5 348.761 67.65 351.761 72.95C354.861 78.15 356.411 84.2 356.411 91.1C356.411 97.9 354.861 104 351.761 109.4C348.761 114.7 344.111 118.85 337.811 121.85C331.611 124.75 323.711 126.2 314.111 126.2H291.461V104.15H311.711C314.811 104.15 317.411 103.7 319.511 102.8C321.611 101.9 323.211 100.55 324.311 98.75C325.511 96.95 326.111 94.8 326.111 92.3C326.111 89.8 325.511 87.7 324.311 86C323.211 84.2 321.611 82.85 319.511 81.95C317.411 81.05 314.811 80.6 311.711 80.6H291.461ZM408.738 162.5C400.238 162.5 392.888 161.05 386.688 158.15C380.588 155.15 375.888 151 372.588 145.7C369.288 140.3 367.638 133.9 367.638 126.5C367.638 119 369.238 112.6 372.438 107.3C375.638 101.9 380.238 97.75 386.238 94.85C392.238 91.95 399.438 90.5 407.838 90.5C416.238 90.5 423.288 91.85 428.988 94.55C434.688 97.25 439.038 101.2 442.038 106.4C445.038 111.5 446.538 117.8 446.538 125.3C446.538 126.5 446.488 127.7 446.388 128.9C446.388 130 446.338 131 446.238 131.9H381.888V118.55H422.538L416.988 125.45C417.488 124.65 417.938 123.75 418.338 122.75C418.738 121.75 418.938 120.9 418.938 120.2C418.938 117.4 418.438 115.05 417.438 113.15C416.538 111.15 415.188 109.65 413.388 108.65C411.688 107.55 409.638 107 407.238 107C404.238 107 401.738 107.7 399.738 109.1C397.738 110.5 396.238 112.65 395.238 115.55C394.238 118.35 393.738 121.95 393.738 126.35C393.638 130.25 394.138 133.55 395.238 136.25C396.338 138.95 397.938 141.05 400.038 142.55C402.138 143.95 404.738 144.65 407.838 144.65C411.638 144.65 414.838 144 417.438 142.7C420.138 141.3 422.238 139.3 423.738 136.7L447.138 141.35C443.438 148.45 438.388 153.75 431.988 157.25C425.688 160.75 417.938 162.5 408.738 162.5ZM463.761 134.75C467.961 137.95 471.611 140.35 474.711 141.95C477.811 143.55 480.461 144.6 482.661 145.1C484.861 145.6 486.561 145.85 487.761 145.85C489.661 145.85 491.061 145.45 491.961 144.65C492.861 143.85 493.311 142.75 493.311 141.35C493.311 140.15 492.911 139.15 492.111 138.35C491.411 137.45 490.011 136.55 487.911 135.65C485.911 134.75 482.911 133.65 478.911 132.35C475.611 131.25 472.461 129.9 469.461 128.3C466.461 126.6 464.011 124.35 462.111 121.55C460.311 118.65 459.411 114.95 459.411 110.45C459.411 106.15 460.561 102.55 462.861 99.65C465.161 96.65 468.311 94.4 472.311 92.9C476.311 91.3 480.961 90.5 486.261 90.5C490.361 90.5 494.161 90.95 497.661 91.85C501.261 92.65 504.661 93.75 507.861 95.15C511.061 96.45 514.211 98 517.311 99.8L509.661 117.05C506.461 114.25 502.861 112 498.861 110.3C494.961 108.5 491.511 107.6 488.511 107.6C486.611 107.6 485.211 107.95 484.311 108.65C483.511 109.35 483.111 110.2 483.111 111.2C483.111 112.6 483.711 113.75 484.911 114.65C486.111 115.45 487.911 116.25 490.311 117.05C492.711 117.85 495.761 118.95 499.461 120.35C502.961 121.65 506.161 123.15 509.061 124.85C512.061 126.45 514.461 128.55 516.261 131.15C518.161 133.75 519.111 137.2 519.111 141.5C519.111 149.3 516.761 155.05 512.061 158.75C507.461 162.45 500.911 164.3 492.411 164.3C487.311 164.3 482.511 163.8 478.011 162.8C473.611 161.8 469.461 160.4 465.561 158.6C461.661 156.8 457.911 154.75 454.311 152.45L463.761 134.75ZM568.113 162.5C559.613 162.5 552.263 161.05 546.063 158.15C539.963 155.15 535.263 151 531.963 145.7C528.663 140.3 527.013 133.9 527.013 126.5C527.013 119 528.613 112.6 531.813 107.3C535.013 101.9 539.613 97.75 545.613 94.85C551.613 91.95 558.813 90.5 567.213 90.5C575.613 90.5 582.663 91.85 588.363 94.55C594.063 97.25 598.413 101.2 601.413 106.4C604.413 111.5 605.913 117.8 605.913 125.3C605.913 126.5 605.863 127.7 605.763 128.9C605.763 130 605.713 131 605.613 131.9H541.263V118.55H581.913L576.363 125.45C576.863 124.65 577.313 123.75 577.713 122.75C578.113 121.75 578.313 120.9 578.313 120.2C578.313 117.4 577.813 115.05 576.813 113.15C575.913 111.15 574.563 109.65 572.763 108.65C571.063 107.55 569.013 107 566.613 107C563.613 107 561.113 107.7 559.113 109.1C557.113 110.5 555.613 112.65 554.613 115.55C553.613 118.35 553.113 121.95 553.113 126.35C553.013 130.25 553.513 133.55 554.613 136.25C555.713 138.95 557.313 141.05 559.413 142.55C561.513 143.95 564.113 144.65 567.213 144.65C571.013 144.65 574.213 144 576.813 142.7C579.513 141.3 581.613 139.3 583.113 136.7L606.513 141.35C602.813 148.45 597.763 153.75 591.363 157.25C585.063 160.75 577.313 162.5 568.113 162.5ZM640.386 139.4C640.386 140.9 640.736 142.2 641.436 143.3C642.236 144.3 643.286 145.1 644.586 145.7C645.886 146.2 647.286 146.45 648.786 146.45C650.986 146.45 653.086 146 655.086 145.1C657.086 144.1 658.686 142.6 659.886 140.6C661.186 138.5 661.836 135.9 661.836 132.8L664.236 141.8C664.236 146.2 663.086 149.95 660.786 153.05C658.586 156.15 655.536 158.5 651.636 160.1C647.836 161.7 643.636 162.5 639.036 162.5C634.636 162.5 630.536 161.7 626.736 160.1C623.036 158.4 620.036 155.95 617.736 152.75C615.436 149.45 614.286 145.45 614.286 140.75C614.286 134.15 616.586 128.95 621.186 125.15C625.886 121.35 632.636 119.45 641.436 119.45C645.236 119.45 648.786 119.8 652.086 120.5C655.486 121.2 658.436 122.15 660.936 123.35C663.536 124.45 665.486 125.7 666.786 127.1V138.05C664.786 136.35 662.286 135.05 659.286 134.15C656.286 133.25 653.136 132.8 649.836 132.8C647.536 132.8 645.686 133.05 644.286 133.55C642.886 134.05 641.886 134.8 641.286 135.8C640.686 136.7 640.386 137.9 640.386 139.4ZM627.786 114.65L619.536 97.7C623.936 95.8 628.986 94.05 634.686 92.45C640.486 90.75 646.636 89.9 653.136 89.9C659.436 89.9 665.086 90.8 670.086 92.6C675.186 94.3 679.186 96.85 682.086 100.25C685.086 103.65 686.586 107.8 686.586 112.7V161H661.836V118.85C661.836 117.35 661.586 116 661.086 114.8C660.686 113.6 659.986 112.6 658.986 111.8C657.986 110.9 656.686 110.25 655.086 109.85C653.486 109.35 651.636 109.1 649.536 109.1C646.636 109.1 643.636 109.45 640.536 110.15C637.536 110.85 634.886 111.65 632.586 112.55C630.286 113.45 628.686 114.15 627.786 114.65ZM727.936 92V161H702.586V92H727.936ZM747.586 118.55C746.486 117.35 745.236 116.4 743.836 115.7C742.536 114.9 740.886 114.5 738.886 114.5C736.886 114.5 735.036 115.05 733.336 116.15C731.636 117.25 730.286 118.9 729.286 121.1C728.386 123.3 727.936 126.05 727.936 129.35L722.536 119C722.536 113.5 723.636 108.6 725.836 104.3C728.036 100 730.936 96.6 734.536 94.1C738.236 91.5 742.086 90.2 746.086 90.2C748.586 90.2 750.986 90.8 753.286 92C755.586 93.1 757.286 94.5 758.386 96.2L747.586 118.55ZM788.085 126.5C788.085 129.8 788.835 132.65 790.335 135.05C791.835 137.45 793.885 139.3 796.485 140.6C799.085 141.8 801.885 142.4 804.885 142.4C807.385 142.4 809.835 142.05 812.235 141.35C814.635 140.65 816.835 139.6 818.835 138.2C820.935 136.7 822.685 134.9 824.085 132.8V157.1C821.685 158.6 818.835 159.9 815.535 161C812.235 162 807.885 162.5 802.485 162.5C794.585 162.5 787.535 161.05 781.335 158.15C775.135 155.15 770.235 150.95 766.635 145.55C763.135 140.15 761.385 133.8 761.385 126.5C761.385 119.1 763.135 112.75 766.635 107.45C770.235 102.05 775.135 97.9 781.335 95C787.535 92 794.585 90.5 802.485 90.5C807.885 90.5 812.235 91.05 815.535 92.15C818.835 93.15 821.685 94.35 824.085 95.75V120.05C822.685 117.85 820.835 116.05 818.535 114.65C816.335 113.25 814.035 112.25 811.635 111.65C809.235 110.95 806.985 110.6 804.885 110.6C801.885 110.6 799.085 111.3 796.485 112.7C793.885 114.1 791.835 116 790.335 118.4C788.835 120.8 788.085 123.5 788.085 126.5ZM865.792 44V161H839.842V44H865.792ZM884.692 119C884.692 115.4 884.092 112.65 882.892 110.75C881.692 108.75 879.392 107.75 875.992 107.75C873.992 107.75 872.192 108.2 870.592 109.1C869.092 109.9 867.892 111.15 866.992 112.85C866.192 114.45 865.792 116.5 865.792 119H861.892C861.892 113.5 862.742 108.5 864.442 104C866.142 99.5 868.792 95.9 872.392 93.2C876.092 90.5 880.942 89.15 886.942 89.15C892.942 89.15 897.642 90.15 901.042 92.15C904.442 94.15 906.892 97.1 908.392 101C909.892 104.8 910.642 109.5 910.642 115.1V161H884.692V119Z" fill="#4B0082"/>
</svg>
